<?xml version="1.0" encoding="UTF-8"?>
<svg id="Layer_1" data-name="Layer 1" xmlns="http://www.w3.org/2000/svg" xmlns:xlink="http://www.w3.org/1999/xlink" viewBox="0 0 96 96">
  <defs>
    <style>
      .cls-1 {
        fill: #0366ff;
      }

      .cls-1, .cls-2, .cls-3, .cls-4, .cls-5, .cls-6, .cls-7, .cls-8, .cls-9, .cls-10 {
        stroke-width: 0px;
      }

      .cls-2 {
        fill: #2d1e20;
      }

      .cls-3 {
        fill: #211718;
      }

      .cls-4 {
        fill: #3a3f57;
      }

      .cls-5 {
        fill: none;
      }

      .cls-6 {
        fill: #c1d6d5;
        opacity: .45;
      }

      .cls-7 {
        fill: #e59380;
      }

      .cls-11 {
        clip-path: url(#clippath-1);
      }

      .cls-8 {
        fill: #fff;
      }

      .cls-12 {
        clip-path: url(#clippath);
      }

      .cls-9 {
        fill: #fca58d;
      }

      .cls-10 {
        fill: #b0c1ff;
      }
    </style>
    <clipPath id="clippath">
      <path class="cls-5" d="m54.58,23.95s1.12-1,2.91-.45c1.79.55,2.11.89,2.11.89,0,0-.6,1.29-1.19,1.55-.62.27-2.26.38-2.91,0-.65-.38-.92-2-.92-2Z"/>
    </clipPath>
    <clipPath id="clippath-1">
      <path class="cls-5" d="m65.82,23.56c-.71.34-1.06.6-1.22.75.13.44.28.88.46,1.31.13.31.41.53.73.59.46.09,1.03.05,1.31-.2.42-.38.59-2,.59-2,0,0-.72-1-1.87-.45Z"/>
    </clipPath>
  </defs>
  <g>
    <path class="cls-1" d="m98.77,131.32c-.05-2-.13-4-.23-5.99-.23-4.69-.57-9.38-1.03-14.05-.12-1.17-.24-2.34-.37-3.5.18-3.08.29-6.16.3-9.24,0-3.73-.14-7.45-.52-11.16-.19-1.82-.44-3.65-.75-5.45-.31-1.79-.65-3.6-1.16-5.35-.83-2.89-2.46-5.93-5.52-6.89,0,0,0,0-.01,0-.01-.51-.12-1.03-.31-1.51-.41-1.07-1.19-1.94-2.07-2.65-.93-.76-1.98-1.38-3.01-1.98-1.1-.64-2.23-1.22-3.39-1.75-.52-.24-1.05-.46-1.58-.68.31-1.05.38-2.18.21-3.26-.44-2.83-2.41-4.92-5.22-5.5-1.71-.35-3.53-.23-5.22.15-2.24.5-4.4,1.15-6.67,1.48-2.35.35-4.72.56-7.1.55-4.76-.03-9.46-.98-14.11-1.92-1.63-.33-3.31-.75-5.01-1.03-1.82-.29-3.65-.42-5.46-.09,0,0-.02,0-.02,0-3.2.6-6.35,2.9-6.84,6.29-.04.29-.07.59-.09.88-1.81.37-3.6.83-5.3,1.55-1.91.81-3.7,1.97-5.07,3.55-.49.57-.92,1.19-1.26,1.85-.1.18-.75.41-.94.54-.32.21-.64.43-.94.67-.59.47-1.14,1-1.63,1.57-.49.57-.93,1.18-1.34,1.81-1.38,2.14-2.2,4.54-2.96,6.95-.85,2.7-1.58,5.43-2.21,8.18-1.06,4.51-1.89,9.07-2.54,13.66-.65,4.59-1.11,9.21-1.42,13.83-.32,4.67-.49,9.36-.55,14.04-.02,1.49-.03,2.97-.02,4.46h101.36Z"/>
    <path class="cls-2" d="m43.36,63.93c-1.45-1.68-2.85-3.41-4.07-5.27-1.2-1.82-2.22-3.77-2.92-5.84-.14-.41-.27-.83-.38-1.26-1.82-.29-3.65-.42-5.46-.09-.05.74.02,1.49.17,2.22.28,1.31.85,2.53,1.63,3.61.76,1.05,1.7,1.96,2.73,2.75,1.1.84,2.31,1.53,3.56,2.13,1.34.64,2.73,1.18,4.12,1.7.18.07.35.13.52.2.09.03.14-.09.09-.15Z"/>
    <path class="cls-2" d="m78.89,61.71c-.48,2.56-1.73,4.98-3.08,7.18-1.75,2.86-3.88,5.51-6.3,7.84-1.42,1.37-2.95,2.63-4.59,3.72-.17.11-.13.34.05.4,1,.37,2,.84,2.81,1.54.81.7,1.41,1.59,1.74,2.61.46,1.38.4,2.86.13,4.27-.27,1.4-.68,2.79-1.24,4.09-.56,1.3-1.26,2.55-1.97,3.78-.71,1.23-1.42,2.47-2.12,3.7-1.35,2.38-2.7,4.75-4.13,7.08-1.63,2.65-3.36,5.22-5.23,7.7l.4.05c-1.78-5.11-4.96-9.58-8.07-13.95-1.59-2.24-3.2-4.48-4.67-6.8-1.51-2.37-2.82-5.04-2.74-7.93.07-2.65,1.61-5.4,4.3-6.11.19-.05.21-.3.05-.4-3.32-2.18-6.73-4.24-9.99-6.5-3.32-2.31-6.56-4.85-8.64-8.4-1.19-2.03-1.92-4.31-1.89-6.68,0-.29-.44-.29-.44,0-.06,4.33,2.33,8.22,5.34,11.17,1.43,1.4,3.04,2.6,4.67,3.76,1.45,1.03,2.93,2.01,4.43,2.97,2.11,1.35,4.22,2.69,6.31,4.06.02-.13.04-.27.05-.4-2.25.59-3.89,2.62-4.41,4.84-.66,2.8.24,5.68,1.57,8.14.7,1.29,1.52,2.5,2.34,3.72.78,1.15,1.56,2.29,2.36,3.42,1.61,2.28,3.26,4.54,4.76,6.89,1.68,2.63,3.21,5.38,4.24,8.33.07.19.29.21.4.05,3.43-4.54,6.33-9.43,9.14-14.38.73-1.28,1.46-2.57,2.19-3.84.73-1.26,1.45-2.52,2.04-3.86.59-1.32,1.02-2.72,1.32-4.13.29-1.41.41-2.89.06-4.3-.3-1.19-.92-2.29-1.83-3.12-.91-.83-2.03-1.38-3.18-1.8l.05.4c2.94-1.95,5.52-4.41,7.76-7.12,2.01-2.44,3.8-5.12,5.11-8,.56-1.24,1.05-2.54,1.3-3.88.05-.28-.37-.4-.43-.12h0Z"/>
    <path class="cls-2" d="m89.34,69.94c-.86,3.34-1.87,6.65-3.03,9.9-.33.91-.67,1.82-1.01,2.73-.1.27.33.38.43.12,1.24-3.22,2.34-6.5,3.29-9.82.27-.93.52-1.87.76-2.81.07-.28-.36-.39-.43-.12h0Z"/>
    <path class="cls-2" d="m12.25,66c.88.81,1.53,1.83,2.1,2.87.71,1.31,1.27,2.69,1.75,4.09.28.83.53,1.68.75,2.53.07.28.5.16.43-.12-.39-1.53-.88-3.04-1.49-4.5-.53-1.29-1.15-2.55-1.95-3.7-.37-.53-.78-1.04-1.26-1.49-.21-.19-.52.12-.31.31h0Z"/>
    <path class="cls-2" d="m22.22,78.82c.95,4.1,1.68,8.27,2.4,12.41.83,4.78,1.49,9.59,2.01,14.41.52,4.8.9,9.61,1.19,14.42.22,3.75.38,7.5.47,11.25h.44c-.08-3.19-.2-6.37-.37-9.55-.27-4.86-.63-9.72-1.12-14.57-.49-4.8-1.11-9.58-1.89-14.34-.37-2.23-.79-4.45-1.2-6.68-.37-2.04-.75-4.07-1.19-6.1-.87-4.03-1.98-8.06-3.87-11.74-.23-.45-.48-.9-.74-1.33-.14-.25-.53-.02-.38.22,2.1,3.57,3.32,7.57,4.25,11.59Z"/>
    <path class="cls-2" d="m83.56,131.32c.08-1.51.16-3.01.24-4.52.16-3.18.32-6.36.45-9.54.12-2.9.22-5.8.29-8.71.06-2.57.09-5.14.08-7.71-.01-2.18-.06-4.36-.18-6.54-.01-.25-.03-.49-.04-.74-.02-.28-.46-.29-.44,0,.13,2.13.19,4.27.22,6.4.03,2.52,0,5.05-.05,7.57-.06,2.87-.15,5.73-.27,8.6-.12,3.15-.27,6.3-.43,9.45-.1,1.91-.2,3.82-.3,5.73h.44Z"/>
  </g>
  <g>
    <path class="cls-10" d="m67.98,53.72c-.33.4-.91.35-1.39.39-.96.09-1.92.14-2.89.21-2.25.16-4.5.36-6.75.53-2.26.17-4.52.32-6.79.41-2.25.08-4.5.09-6.75-.01-2.27-.11-4.54-.33-6.79-.72-.05-.01-.11-.02-.16-.03-1-.48-2.03-1.02-2.57-2-.64-1.15-.41-2.56.08-3.73.07-.17.15-.34.24-.51,1.44-2.87,4.21-4.23,7.19-4.82.5-.1,1.01-.18,1.52-.24,1.2-.14,2.4-.22,3.61-.26,3.64-.11,7.3.17,10.93.46,1.84.15,3.7.29,5.44.89.47.16.91.36,1.34.59,2.47,1.36,4.07,3.88,4.08,6.83,0,.55.05,1.57-.33,2.03Z"/>
    <path class="cls-2" d="m42.92,43.18c-.51.06-1.02.14-1.52.24.85,2.1,1.28,4.37,1.25,6.65,0,.23.29.28.41.11,1.56-2.19,2.74-4.66,3.46-7.25-1.2.04-2.41.12-3.61.26Z"/>
  </g>
  <path class="cls-7" d="m66.6,53.24c-1.12,3.4-2.62,6.65-4.07,9.93-1.69,3.83-3.4,7.66-5.25,11.41-.32.64-.64,1.28-.96,1.91-.44.05-.89.04-1.34-.02-.36-.84-.75-1.66-1.15-2.48-1.03-2.14-2.17-4.23-3.37-6.27-1.22-2.07-2.5-4.09-3.82-6.09-1.32-2-2.68-3.98-4.04-5.96-1.17-1.7-2.35-3.39-3.52-5.1.16-.06.32-.13.47-.19.56-.24,1.1-.51,1.62-.83,1.06-.65,2-1.55,2.48-2.72.31-.77.4-1.59.44-2.41.04-.84.04-1.68.06-2.52.07-3.47.13-6.94.18-10.42-.02,0-.04-.01-.06-.02-.11-.03-.06-.2.05-.17.01,0,.02,0,.03,0,.04-.07.17-.06.17.04h0c2.88.77,5.71,1.69,8.49,2.75,2.48.95,4.93,2.02,7.31,3.2.3.15.6.29.89.45v3.39c0,6.11-.54,8.01,1.76,9.68,1.33.97,2.15,1.53,2.89,2,.25.16.49.31.74.46Z"/>
  <g>
    <path class="cls-8" d="m65.86,52.78c-2.16.88-4.41,1.52-6.72,1.89-4.45.71-9.04.33-13.3-1.14-2.23-.77-4.35-1.83-6.29-3.16-.16.07-.32.13-.47.19,1.17,1.7,2.35,3.4,3.52,5.1,1.37,1.97,2.72,3.95,4.04,5.96,1.32,2,2.6,4.03,3.82,6.09,1.2,2.05,2.34,4.13,3.37,6.27.4.82.78,1.65,1.15,2.48.44.06.89.07,1.34.02.32-.64.65-1.27.96-1.91,1.85-3.75,3.57-7.58,5.25-11.41,1.44-3.28,2.95-6.53,4.07-9.93-.25-.15-.49-.3-.74-.46Z"/>
    <path class="cls-2" d="m62.06,56.75c-.04.13-.07.26-.11.39-1.01,1.33-2.05,2.65-3.11,3.95-1.07,1.32-2.17,2.62-3.28,3.9-.63.73-1.27,1.45-1.91,2.16-.02.03-.04.08-.01.11l3.1,4.08s.12.07.15,0c.85-1.83,1.65-3.68,2.38-5.56.73-1.88,1.4-3.79,2.01-5.72.3-.94.57-1.89.84-2.84.02-.02.03-.04.05-.07.03-.04.02-.07,0-.1.02-.09.05-.17.07-.26.03-.11-.14-.16-.17-.05Z"/>
    <path class="cls-2" d="m43.14,54.53c1.35.78,2.87,1.34,4.35,1.79,3.32,1.02,6.86,1.42,10.31.94,2.42-.33,4.76-1.11,6.91-2.27.25-.14.03-.52-.22-.38-3.6,1.95-7.7,2.7-11.76,2.32-2.73-.25-5.44-.97-7.95-2.08-.48-.21-.96-.43-1.41-.7-.25-.14-.47.24-.22.38h0Z"/>
  </g>
  <g>
    <path class="cls-10" d="m68.74,58.76c-.65,2.28-3.09,6.05-4.01,7.42-.24.35-.41.74-.5,1.15-.35,1.47-1.24,5.2-2.02,8.32-.05.22-.11.44-.17.67-.75,2.94-1.62,6.12-2.39,9.01-.66,2.46-1.31,4.92-1.97,7.38l-1.32,4.94c-.11.41-.69.4-.79,0-.45-1.85-.92-3.7-1.42-5.55-.63-2.38-1.29-4.75-2-7.06-.71-2.32-1.5-4.61-2.37-6.87-.88-2.28-2.71-7.17-3.54-9.36-.27-.71-.76-1.32-1.4-1.73-1.33-.86-3.74-2.44-5.35-3.72-2.22-1.76-5.85-4.04-6.03-7.27-.05-.99.2-2,.75-2.82-.07-.08-.13-.16-.18-.24-1.5-2.34.13-5.45,2.8-5.81,1.56-.21,3.72.49,4.76,1.65.55.62,1.09,1.23,1.64,1.86,1.94,2.23,3.84,4.5,5.53,6.92,1.22,1.74,2.36,3.53,3.46,5.35,1.1,1.82,2.15,3.66,3.16,5.53.21.39.42.78.63,1.17.61-1.29,1.21-2.59,1.8-3.89.64-1.41,1.29-2.82,1.92-4.24.63-1.42,1.26-2.83,1.88-4.26.62-1.42,1.23-2.83,1.84-4.25.61-1.44,1.22-2.87,1.82-4.31.02-.05.07-.08.13-.05.19.09.37.2.54.31,1.43.92,2.4,2.43,2.89,4.04.56,1.86.42,3.85-.1,5.7Z"/>
    <path class="cls-2" d="m60.82,79.26c-.85,2-1.73,3.98-2.7,5.92-.97,1.94-2.01,3.85-3.17,5.68-.26.41-.53.82-.8,1.23.49,1.85.96,3.7,1.42,5.55.1.41.68.41.79,0l1.32-4.94c.66-2.46,1.31-4.92,1.97-7.38.77-2.89,1.65-6.07,2.39-9.01-.4.98-.8,1.96-1.21,2.93Z"/>
    <path class="cls-2" d="m34.37,53.59c3.69.01,7.19,1.72,10.22,3.69.99.65,1.96,1.34,2.89,2.07.22.17.54-.14.31-.31-3.11-2.43-6.62-4.67-10.51-5.54-.95-.22-1.93-.34-2.91-.34-.29,0-.29.44,0,.44h0Z"/>
    <path class="cls-2" d="m67.93,51.28c-2.51,1.73-4.33,4.3-5.97,6.83-.16.24.23.46.38.22,1.59-2.46,3.36-4.98,5.81-6.67.23-.16.01-.54-.22-.38h0Z"/>
    <path class="cls-2" d="m64.25,51.34c.55-1.17,1.12-2.33,1.71-3.49.13-.25-.25-.48-.38-.22-.58,1.16-1.15,2.32-1.71,3.49-.12.26.26.48.38.22h0Z"/>
    <path class="cls-2" d="m38.03,46.48c1.24.56,2.38,1.32,3.37,2.26.21.2.52-.12.31-.31-1.01-.96-2.18-1.75-3.46-2.33-.26-.12-.48.27-.22.38h0Z"/>
    <path class="cls-8" d="m53.55,73.39c-.03-1.88-.14-3.76-.36-5.61-.01-.12-.11-.18-.18-.15-.34.13-.68.25-1.02.38-.08.03-.12.16-.1.27,0,.04,0,.07,0,.11.46,3.23.45,6.55.3,9.83-.15,3.32-.44,6.61-.55,9.93-.06,1.87-.07,3.75.05,5.61,0,.11.06.23.15.22.08-.01.17-.02.25-.04.04.27.07.53.1.8.02.19.04.37.06.56.02.16.01.34.07.5.08.22.42.34.52.07.05-.14,0-.3,0-.44-.02-.19-.05-.37-.07-.56-.04-.33-.09-.66-.13-.99.07-.01.15-.02.22-.03.08-.01.15-.09.15-.22-.08-1.75-.18-3.58-.18-5.36,0-1.82.17-3.58.32-5.38.25-3.14.48-6.33.42-9.5Z"/>
    <path class="cls-8" d="m60.15,72.95c.16-1.97.22-3.95.04-5.92,0-.05-.04-.1-.08-.09-.5.2-.99.44-1.47.71-.03.02-.04.07-.03.1.03.16.05.32.07.49,0,.01,0,.02,0,.04.11,1.68.07,3.36-.06,5.04-.13,1.7-.34,3.4-.54,5.09-.2,1.66-.4,3.32-.51,5-.11,1.67-.14,3.36,0,5.03.15,1.75.51,3.43.91,5.1.05.22.1.43.16.65,0,.04.05.08.08.06l.32-.18c.07.21.13.43.2.64.06.19.12.38.18.57.05.15.08.34.17.48.16.26.49.13.54-.14.03-.17-.04-.34-.09-.49-.06-.18-.12-.36-.18-.53-.09-.27-.18-.55-.25-.83l.28-.16s.06-.06.05-.11c-.22-.82-.43-1.65-.6-2.49-.17-.84-.29-1.7-.36-2.56-.14-1.7-.1-3.41.02-5.1.25-3.49.88-6.9,1.17-10.38Z"/>
  </g>
  <g>
    <g>
      <path class="cls-9" d="m67.24,26.15c-.22-.9-.32-1.83-.36-1.95.31-1.73.45-2.51.41-3.28-.02-.27-.05-.54-.12-.86-.1-.52-.13-.72-.21-1.1-.02-.11-.05-.23-.08-.37-.42-1.85-.41-2.62-1.22-4.14-2.11-3.96-7.12-5.54-11.36-5.96-4.93-.49-10.1.97-13.18,5.04-3.65,4.83-3.14,11.89.5,16.6.62.81,1.36,1.51,2.18,2.13,1.03.78,2.17,1.39,3.35,1.93.12.41.24.83.38,1.23.5,1.48,1.19,2.9,2.24,4.07,1.01,1.12,2.28,2,3.63,2.65,1.53.73,3.17,1.19,4.83,1.51.81.16,1.62.31,2.44.39.73.07,1.49.08,2.2-.15.67-.21,1.22-.64,1.62-1.22.39-.56.62-1.22.8-1.88.16-.58.2-1.18.27-1.77.08-.62.21-1.23.32-1.84.13-.73.27-1.45.43-2.18.35-1.64.77-3.29,1.06-4.95.24-1.35.23-2.58-.11-3.92Z"/>
      <path class="cls-2" d="m58.57,21.08c-.11-.21-.27-.41-.43-.58-.63-.69-1.48-1.17-2.39-1.38-.46-.1-.93-.14-1.4-.1-.46.04-.87.2-1.13.6-.12.19-.19.41-.2.63,0,.16,0,.34.09.47.15.22.53.2.76.21,1.07.06,2.16.07,3.2.36.27.08.54.17.81.24.13.03.25.06.38.08.1.02.24.06.34,0,.19-.12.04-.39-.04-.53Z"/>
      <path class="cls-2" d="m67.39,19.97c-.08-.4-.12-.61-.16-.85-.03-.14-.16-.23-.3-.2-.13.03-.26.06-.39.1-.89.27-1.71.81-2.29,1.54-.15.19-.29.39-.39.61-.06.14-.19.43,0,.53.1.05.24,0,.34-.02.13-.03.25-.07.37-.11.27-.09.52-.2.79-.29.62-.22,1.26-.34,1.91-.43.13-.02.23-.14.22-.27-.02-.19-.05-.39-.1-.61Z"/>
      <path class="cls-2" d="m57.66,32.33c-.12.56.29.95.74,1.2.49.26,1.02.44,1.56.56,1.1.25,2.24.27,3.37.2.28-.02.29-.46,0-.44-.96.06-1.94.06-2.89-.11-.46-.08-.92-.2-1.35-.38-.35-.14-1.1-.42-.99-.91.06-.28-.37-.4-.43-.12h0Z"/>
    </g>
    <g>
      <path class="cls-3" d="m68.66,9.88c-.27-.33-.7-.44-1.11-.36-.12.02-.22.06-.33.11,0-.45-.15-.89-.49-1.22-.48-.47-1.21-.49-1.79-.19-.03.02-.06.04-.1.06-.06-.66-.24-1.36-.89-1.66-.64-.3-1.45-.18-2.01.23-.02-.3-.08-.6-.21-.87-.17-.37-.48-.66-.84-.84-.78-.39-1.69-.26-2.41.22-.24.16-.45.34-.64.55-.01-.33-.06-.66-.19-.97-.19-.45-.58-.76-1.04-.89-.98-.27-2.02.17-2.78.76-.22.17-.42.35-.61.55-.33-.81-.97-1.52-1.9-1.53-.57,0-1.13.23-1.6.54-.43.28-.79.64-1.09,1.06-.12.17-.22.34-.31.53-.59-.53-1.49-.69-2.25-.46-.96.29-1.69,1.08-2.08,1.98-.08.19-.15.38-.21.58-.48-.42-1.19-.53-1.79-.31-.81.29-1.35,1.05-1.6,1.85-.01.05-.03.09-.04.14-.27-.12-.58-.15-.87-.08-.46.11-.86.41-1.18.75-.66.7-.99,1.66-.99,2.61,0,.16,0,.33.03.49-.22-.05-.47,0-.67.08-.34.14-.64.37-.87.66-.53.65-.71,1.48-.65,2.3.03.36.1.71.19,1.06-.66.24-1.09.9-1.18,1.58-.11.83.19,1.69.71,2.34.21.26.45.5.73.69-.32.4-.51.9-.5,1.42,0,.61.29,1.2.77,1.59.23.18.49.31.77.39-.18.44-.15.96-.08,1.42.1.61.39,1.16.98,1.41.19.08.39.12.59.13,0,.11.02.23.04.34.06.35.13.72.34,1.02.37.54,1.02.83,1.67.85.44.01.87-.08,1.27-.24.07-.02.07-.1.04-.14,1.68-.6,3.37-1.21,5.05-1.81.31-.11.62-.22.94-.34.31-.08.63-.17.94-.26.04-.01.07-.06.06-.1-.38-1.93-.13-4,.97-5.66.21-.31.44-.6.7-.87,0,0,.02-.01.02-.02,0,0,0-.01.01-.02.07-.1.17-.17.26-.25,0,0,0,0,0-.01.04-.03.09-.06.14-.09.04-.02.05-.08.03-.12-.18-.32-.37-.65-.55-.97-.99-1.79.15-4.04,2.18-4.28.01,0,.03,0,.04,0,2.19-.25,4.38.26,6.51.71,2.16.45,4.4.88,6.6.46.24-.05.48-.11.7-.22.21-.11.4-.27.56-.44.37-.4.69-.87.97-1.33.49-.78.85-1.63,1.1-2.52.2-.71.45-1.69-.07-2.33Z"/>
      <path class="cls-4" d="m35.94,22.5c1.38.3,2.3-.9,2.96-1.92-.14-.04-.28-.07-.41-.11.08.94,1.04,1.45,1.91,1.27,1.06-.21,1.69-1.18,2.21-2.03l-.4-.05c.23.89,1.23,1.26,2.08,1.12,1.08-.18,1.8-1.18,2.4-2.01.17-.23-.22-.45-.38-.22-.5.7-1.09,1.55-1.97,1.77-.64.16-1.51-.07-1.69-.78-.05-.19-.31-.21-.4-.05-.42.68-.88,1.45-1.67,1.75-.34.13-.73.15-1.06-.02-.29-.15-.53-.42-.56-.75-.02-.22-.29-.3-.41-.11-.53.82-1.31,1.97-2.46,1.72-.28-.06-.4.37-.12.43h0Z"/>
      <path class="cls-4" d="m37.38,14.65c.17-.68.71-1.24,1.39-1.41.7-.18,1.51.11,1.95.68.07.1.19.14.3.08.09-.05.15-.21.08-.3-.56-.72-1.5-1.1-2.4-.9-.85.19-1.54.89-1.75,1.73-.07.28.36.39.43.12h0Z"/>
      <path class="cls-4" d="m42.8,9.92c.22-.62.77-1.16,1.44-1.23.61-.06,1.27.3,1.45.91.08.27.51.16.43-.12-.24-.78-1.07-1.31-1.88-1.23-.88.08-1.58.74-1.87,1.56-.09.27.33.39.43.12h0Z"/>
      <path class="cls-4" d="m51.21,7.33c.26-.64.92-1.13,1.61-1.17.73-.05,1.43.35,1.79.98.14.25.52.02.38-.22-.44-.77-1.33-1.27-2.23-1.19-.89.08-1.65.67-1.98,1.49-.11.26.32.38.43.12h0Z"/>
      <path class="cls-4" d="m59.92,8.21c.39-.61,1.2-.86,1.88-.64.74.24,1.23.99,1.29,1.74.02.28.47.28.44,0-.08-.95-.68-1.86-1.62-2.17-.87-.28-1.89.07-2.38.84-.15.24.23.46.38.22h0Z"/>
    </g>
    <g>
      <path class="cls-2" d="m45.93,30.23c.9-.3,1.81-.6,2.71-.91.27-.09.15-.52-.12-.43-.9.3-1.81.6-2.71.91-.27.09-.15.52.12.43h0Z"/>
      <path class="cls-2" d="m46.23,31.55c.89-.31,1.78-.61,2.66-.92.27-.09.15-.52-.12-.43-.89.31-1.78.61-2.66.92-.27.09-.15.52.12.43h0Z"/>
    </g>
    <g>
      <g>
        <path class="cls-6" d="m63.99,26.97c0,.7.19,1.58.5,2.15.21.38.49.65.79.84.33.21.68.34,1.02.44.93.27,1.89,0,2.69-.66.72-.6,1.43-1.56,1.49-2.86,0,0,.04-.77.04-.77.04-.74-.11-1.48-.42-2.09l-.05-.09c-.39-.78-1-1.27-1.65-1.32l-2.37-.16c-.75-.05-1.44.48-1.81,1.4-.36.88-.23,1.53-.23,3.11Z"/>
        <path class="cls-8" d="m64.24,24.57c.08-.41.23-.82.45-1.17.16-.26.38-.52.68-.62.35-.11.77-.08,1.13-.07.79.02,1.59.11,2.37.24.38.07.63.21.88.55.54.75.64,1.76.64,2.65,0,.28.44.29.44,0,0-.92-.11-1.91-.6-2.71-.24-.39-.59-.77-1.05-.88-.77-.18-1.59-.25-2.38-.29-.46-.02-.93-.04-1.38.04-.36.06-.68.28-.91.56-.36.44-.6,1.02-.71,1.58-.05.28.37.4.43.12h0Z"/>
      </g>
      <g>
        <path class="cls-9" d="m64.84,28.1c-.13-.32-.26-.64-.39-.96-.25-.63-.49-1.26-.72-1.89-.26-.72-.51-1.43-.75-2.16-.04-.11-.21-.06-.17.05,0,.01,0,.03.01.04-.17,1.93-.35,3.85-.52,5.77-.05.54-.1,1.09-.15,1.63,0,.05.02.07.06.08,0,.02,0,.04,0,.06,0,.08.1.11.15.06.45-.37,1.01-.56,1.53-.81.45-.22.98-.55,1.09-1.07.06-.28-.03-.55-.14-.81Z"/>
        <path class="cls-2" d="m62.37,22.89c.62,1.45,1.24,2.9,1.86,4.35.15.35.3.7.45,1.05.07.17.16.38.13.58-.03.16-.15.29-.27.39-.25.21-.57.37-.86.53-.34.18-.68.35-1.04.49-.26.11-.15.53.12.43.71-.29,1.5-.63,2.09-1.14.26-.22.43-.52.4-.87-.03-.39-.25-.76-.4-1.11-.7-1.64-1.4-3.28-2.1-4.91-.11-.26-.49-.04-.38.22h0Z"/>
      </g>
      <g>
        <path class="cls-6" d="m61.48,23.8c-.53-.96-1.52-1.56-2.62-1.59l-3.47-.08c-.95-.02-1.86.4-2.46,1.15l-.07.09c-.47.58-.7,1.31-.67,2.05,0,0,.03.77.03.77.05,1.3,1.06,2.34,2.1,3.01,1.15.75,2.55,1.11,3.91.93.51-.06,1.03-.16,1.51-.34.44-.16.87-.4,1.18-.76.47-.54.77-1.4.8-2.1.05-1.58.27-2.21-.24-3.13Z"/>
        <path class="cls-8" d="m42.72,26.38c1.07-.07,2.13-.13,3.2-.2,1.7-.11,3.4-.21,5.1-.32.39-.02.79-.05,1.18-.07.12,0,.23-.1.22-.22-.03-.88.24-1.92.9-2.54.28-.26.63-.42,1-.5.63-.13,1.28-.19,1.92-.22,1-.04,2.01.02,3.01.16.54.08,1,.23,1.42.58.44.37.8.86.94,1.42.04.17.25.2.37.1.04-.03-.02.02.01,0,.04-.03.08-.06.13-.09.14-.09.29-.16.44-.2.51-.15.96.02,1.33.39.2.2.51-.11.31-.31-.45-.46-1.03-.68-1.66-.53-.31.07-.62.23-.87.44.12.03.25.07.37.1-.25-1.01-1.16-1.97-2.18-2.23-.43-.11-.89-.14-1.33-.18-.58-.06-1.16-.09-1.75-.09-.67,0-1.34.05-2.01.15-.5.07-.99.16-1.42.44-.62.4-1,1.07-1.2,1.77-.12.43-.19.9-.18,1.35.07-.07.15-.15.22-.22-1.07.07-2.13.13-3.2.2-1.7.11-3.4.21-5.1.32-.39.02-.79.05-1.18.07-.28.02-.29.46,0,.44h0Z"/>
      </g>
      <g>
        <path class="cls-8" d="m54.58,23.95s1.12-1,2.91-.45c1.79.55,2.11.89,2.11.89,0,0-.6,1.29-1.19,1.55-.62.27-2.26.38-2.91,0-.65-.38-.92-2-.92-2Z"/>
        <path class="cls-2" d="m54.8,24.12c1.38-.92,3.36-.47,4.69.35.24.15.47-.23.22-.38-1.46-.9-3.62-1.36-5.14-.35-.24.16-.01.54.22.38h0Z"/>
        <g class="cls-12">
          <circle class="cls-2" cx="58.37" cy="24.76" r="1.67"/>
        </g>
      </g>
      <g>
        <path class="cls-8" d="m65.82,23.56c-.71.34-1.06.6-1.22.75.13.44.28.88.46,1.31.13.31.41.53.73.59.46.09,1.03.05,1.31-.2.42-.38.59-2,.59-2,0,0-.72-1-1.87-.45Z"/>
        <path class="cls-2" d="m64.71,24.44c.39-.31.84-.52,1.33-.6.57-.1,1.14.01,1.68.22.27.1.38-.33.12-.43-.61-.23-1.26-.33-1.91-.22-.57.1-1.08.36-1.53.71-.09.07-.08.23,0,.31.09.09.22.07.31,0h0Z"/>
        <g class="cls-11">
          <circle class="cls-2" cx="67.55" cy="24.82" r="1.67"/>
        </g>
      </g>
    </g>
    <g>
      <path class="cls-9" d="m46.92,33.73c-.03-.4-.11-.81-.18-1.2-.35-1.94-.76-4.04-1.92-5.71-1.54-2.21-5.21-1.96-5.79.9-.35,1.71.25,3.77,1.64,4.74,2.08,1.45,4.88,4.73,5.99,2.66.24-.44.28-.91.25-1.39Z"/>
      <path class="cls-2" d="m41.45,26.43c.85.07,1.49.73,1.97,1.38.55.74,1.05,1.52,1.51,2.31.14.25.53.02.38-.22-.5-.87-1.04-1.72-1.66-2.52-.55-.71-1.26-1.32-2.2-1.39-.28-.02-.28.42,0,.44h0Z"/>
      <path class="cls-2" d="m44.22,28.88c-.85,1.17-.76,2.78.18,3.88.19.22.5-.1.31-.31-.82-.95-.84-2.33-.11-3.34.17-.23-.22-.45-.38-.22h0Z"/>
      <path class="cls-2" d="m44.33,35.65c.73.34,1.63.49,2.3-.07.67-.57.72-1.51.67-2.33-.02-.28-.46-.29-.44,0,.04.67.04,1.46-.48,1.96-.5.47-1.26.32-1.82.06-.11-.05-.24-.03-.3.08-.06.1-.03.25.08.3h0Z"/>
    </g>
  </g>
</svg>